<svg width="100" height="100" viewBox="0 0 100 100" fill="none" xmlns="http://www.w3.org/2000/svg">
<path d="M100 50C100 77.6142 77.6142 100 50 100C22.3858 100 0 77.6142 0 50C0 22.3858 22.3858 0 50 0C77.6142 0 100 22.3858 100 50Z" fill="black"/>
<path d="M14.3359 71V28.3438H26.9336C30.7031 28.3438 34.043 29.1836 36.9531 30.8633C39.8828 32.543 42.1484 34.9258 43.75 38.0117C45.3516 41.0977 46.1523 44.6328 46.1523 48.6172V50.7559C46.1523 54.7988 45.3418 58.3535 43.7207 61.4199C42.1191 64.4863 39.8242 66.8496 36.8359 68.5098C33.8672 70.1699 30.459 71 26.6113 71H14.3359ZM21.748 34.3203V65.082H26.582C30.4688 65.082 33.4473 63.8711 35.5176 61.4492C37.6074 59.0078 38.6719 55.5117 38.7109 50.9609V48.5879C38.7109 43.959 37.7051 40.4238 35.6934 37.9824C33.6816 35.541 30.7617 34.3203 26.9336 34.3203H21.748Z" fill="white"/>
<path d="M86.2305 65.4629C84.6875 67.4746 82.5488 68.998 79.8145 70.0332C77.0801 71.0684 73.9746 71.5859 70.498 71.5859C66.9238 71.5859 63.7598 70.7754 61.0059 69.1543C58.252 67.5332 56.123 65.2188 54.6191 62.2109C53.1348 59.1836 52.3633 55.6582 52.3047 51.6348V48.2949C52.3047 41.8496 53.8477 36.8203 56.9336 33.207C60.0195 29.5742 64.3262 27.7578 69.8535 27.7578C74.5996 27.7578 78.3691 28.9297 81.1621 31.2734C83.9551 33.6172 85.6348 36.9961 86.2012 41.4102H78.9355C78.1152 36.2734 75.1367 33.7051 70 33.7051C66.6797 33.7051 64.1504 34.9062 62.4121 37.3086C60.6934 39.6914 59.8047 43.1973 59.7461 47.8262V51.1074C59.7461 55.7168 60.7129 59.3008 62.6465 61.8594C64.5996 64.3984 67.3047 65.668 70.7617 65.668C74.5508 65.668 77.2461 64.8086 78.8477 63.0898V54.7402H70.0586V49.1152H86.2305V65.4629Z" fill="white"/>
</svg>
